<svg width="19" height="18" viewBox="0 0 19 18" fill="none" xmlns="http://www.w3.org/2000/svg">
<path d="M17.4567 13.5116L10.79 1.84491C10.6446 1.58842 10.4338 1.37507 10.1791 1.22664C9.92437 1.07821 9.63482 1 9.34 1C9.04517 1 8.75563 1.07821 8.50089 1.22664C8.24616 1.37507 8.03536 1.58842 7.89 1.84491L1.22333 13.5116C1.0764 13.766 0.999353 14.0548 1 14.3487C1.00065 14.6425 1.07898 14.931 1.22704 15.1848C1.37509 15.4386 1.58762 15.6487 1.84308 15.7939C2.09853 15.9391 2.38784 16.0142 2.68166 16.0116H16.015C16.3074 16.0113 16.5946 15.9341 16.8477 15.7876C17.1009 15.6412 17.311 15.4308 17.4571 15.1775C17.6032 14.9242 17.68 14.6369 17.68 14.3445C17.6799 14.0521 17.6029 13.7648 17.4567 13.5116Z" stroke="white" stroke-width="2" stroke-linecap="round" stroke-linejoin="round"/>
</svg>
